<?xml version="1.0" encoding="UTF-8" standalone="no"?>
<!-- Created with Inkscape (http://www.inkscape.org/) -->

<svg
   width="210mm"
   height="297mm"
   viewBox="0 0 210 297"
   version="1.1"
   id="svg2994"
   inkscape:version="1.1.2 (0a00cf5339, 2022-02-04)"
   sodipodi:docname="szjudo_logo2023_project.svg"
   inkscape:export-filename="/home/kglaz/Mega/00_my_projects/szjudo/szjudo_logotyp2023_kolor_biale_wypelnienie.png"
   inkscape:export-xdpi="96"
   inkscape:export-ydpi="96"
   xmlns:inkscape="http://www.inkscape.org/namespaces/inkscape"
   xmlns:sodipodi="http://sodipodi.sourceforge.net/DTD/sodipodi-0.dtd"
   xmlns="http://www.w3.org/2000/svg"
   xmlns:svg="http://www.w3.org/2000/svg">
  <sodipodi:namedview
     id="namedview2996"
     pagecolor="#ffffff"
     bordercolor="#666666"
     borderopacity="1.0"
     inkscape:pageshadow="2"
     inkscape:pageopacity="0.0"
     inkscape:pagecheckerboard="0"
     inkscape:document-units="mm"
     showgrid="false"
     showguides="true"
     inkscape:guide-bbox="true"
     inkscape:snap-global="false"
     inkscape:snap-bbox="true"
     inkscape:object-nodes="true"
     inkscape:snap-nodes="true"
     inkscape:object-paths="true"
     inkscape:snap-intersection-paths="true"
     inkscape:snap-smooth-nodes="false"
     inkscape:zoom="0.43651796"
     inkscape:cx="396.31817"
     inkscape:cy="561.25984"
     inkscape:window-width="1366"
     inkscape:window-height="700"
     inkscape:window-x="0"
     inkscape:window-y="40"
     inkscape:window-maximized="1"
     inkscape:current-layer="layer1" />
  <defs
     id="defs2991" />
  <g
     inkscape:label="Warstwa 1"
     inkscape:groupmode="layer"
     id="layer1"
     style="display:inline">
    <text
       xml:space="preserve"
       style="font-style:normal;font-variant:normal;font-weight:normal;font-stretch:normal;font-size:5.22457px;line-height:1.25;font-family:'Courier New';-inkscape-font-specification:'Courier New';letter-spacing:0px;word-spacing:0px;fill:#000000;fill-opacity:1;stroke:none;stroke-width:0.130614;text-anchor:end;text-align:end"
       x="121.81658"
       y="19.311108"
       id="text94472"><tspan
         sodipodi:role="line"
         id="tspan94470"
         style="font-style:normal;font-variant:normal;font-weight:normal;font-stretch:normal;font-family:'Courier New';-inkscape-font-specification:'Courier New';stroke-width:0.130614;text-anchor:end;text-align:end"
         x="72.167862"
         y="19.311108">Blue RGB: 38b6ff</tspan><tspan
         sodipodi:role="line"
         style="font-style:normal;font-variant:normal;font-weight:normal;font-stretch:normal;font-family:'Courier New';-inkscape-font-specification:'Courier New';stroke-width:0.130614;text-anchor:end;text-align:end"
         x="72.167862"
         y="25.84182"
         id="tspan99518">Red RGB: ff0000</tspan></text>
    <path
       id="path18-3-9-6-0-2-8-9-3"
       style="display:inline;fill:none;stroke:#000000;stroke-width:0.56825;stroke-miterlimit:4;stroke-dasharray:none"
       d="m 193.03257,98.034432 c -0.0931,0.0095 -0.18628,0.01906 -0.27965,0.02763"
       sodipodi:nodetypes="cc"
       inkscape:export-filename="/home/kglaz/Mega/00_my_projects/szjudo/szjudo_logotyp2023_kolor_brak_wypelnienia.png"
       inkscape:export-xdpi="96"
       inkscape:export-ydpi="96" />
    <path
       id="path18-3-9-6-0-2-8-5-8-4"
       style="display:inline;fill:none;stroke:#000000;stroke-width:1.17673;stroke-miterlimit:4;stroke-dasharray:none;fill-opacity:1"
       d="m 32.468737,206.85729 c 0,0 9.893581,16.43757 30.939488,13.74955 8.009499,19.647 27.187451,20.17774 27.187451,20.17774 0,0 9.17201,1.04444 14.555994,8.5858 5.38395,-7.32881 14.55594,-8.37322 14.55594,-8.37322 0,0 19.17795,-0.53079 27.1875,-20.17777 21.04588,2.688 30.93944,-13.74957 30.93944,-13.74957 0,0 5.42002,-7.47263 14.54184,-8.10269 -3.70416,-7.99563 0.0143,-16.44247 0.0143,-16.44247 0,0 9.20117,-16.82859 -3.71831,-33.64788 12.91948,-16.81927 3.71831,-33.64786 3.71831,-33.64786 0,0 -3.71831,-8.44684 0,-16.819243 -9.10774,-1.006893 -14.52774,-8.479501 -14.52774,-8.479501 0,0 -9.89353,-16.437595 -30.93946,-13.749571 -8.00953,-19.647001 -27.18745,-20.177769 -27.18745,-20.177769 0,0 -9.17201,-1.044386 -14.55599,-8.373214 -5.383984,7.541354 -14.555947,8.585764 -14.555947,8.585764 0,0 -19.177952,0.530768 -27.187498,20.177769 -21.045907,-2.688023 -30.93944,13.749571 -30.93944,13.749571 0,0 -5.42002,7.472585 -14.848768,8.291867 -0.227962,-0.178177 -0.134586,-0.168887 -0.04026,-0.02382 3.71957,8.509397 0.0012,16.956237 0.0012,16.956237 0,0 -9.2011907,16.82858 3.718307,33.64786 -12.9194977,16.81929 -3.718307,33.6479 -3.718307,33.6479 0,0 3.718307,8.44679 0.166028,16.26668 9.273581,0.45426 14.693601,7.92689 14.693601,7.92689 z"
       sodipodi:nodetypes="cccccccccccccccccccccccccc"
       inkscape:export-filename="/home/kglaz/Mega/00_my_projects/szjudo/szjudo_logotyp2023_kolor_brak_wypelnienia.png"
       inkscape:export-xdpi="96"
       inkscape:export-ydpi="96" />
    <path
       inkscape:connector-curvature="0"
       id="path22-7-3-9"
       d="m 104.59629,98.431877 c 25.82859,-0.363286 47.19052,20.407563 47.55374,46.239373 0.36323,25.83044 -20.40676,47.1939 -46.23601,47.55654 -25.828614,0.36326 -47.1905,-20.40756 -47.55312,-46.23872 -0.363238,-25.83111 20.406066,-47.19393 46.23539,-47.557193 z"
       style="display:inline;fill:#ff0000;fill-opacity:1;stroke:#ff0000;stroke-width:1.17673;stroke-miterlimit:4;stroke-dasharray:none;stroke-opacity:1"
       inkscape:export-filename="/home/kglaz/Mega/00_my_projects/szjudo/szjudo_logotyp2023_kolor_brak_wypelnienia.png"
       inkscape:export-xdpi="96"
       inkscape:export-ydpi="96" />
    <path
       inkscape:connector-curvature="0"
       id="path26-6-1-4"
       d="m 87.853889,71.778316 21.052741,-2.763535 c 1.75748,5.476332 -2.66723,9.915567 -10.171205,12.2414 0.666306,-4.879628 -1.733775,-8.530762 -10.881536,-9.477865 z"
       style="display:inline;fill:#38b6ff;fill-opacity:1;stroke:#38b6ff;stroke-width:1.17673;stroke-miterlimit:4;stroke-dasharray:none;stroke-opacity:1"
       inkscape:export-filename="/home/kglaz/Mega/00_my_projects/szjudo/szjudo_logotyp2023_kolor_brak_wypelnienia.png"
       inkscape:export-xdpi="96"
       inkscape:export-ydpi="96" />
    <path
       inkscape:connector-curvature="0"
       id="path30-2-3-2"
       d="m 85.091903,117.56081 c 4.304315,-0.06 7.865217,3.40149 7.925412,7.70683 0.06098,4.3046 -3.401233,7.86574 -7.705549,7.92596 -4.305007,0.0607 -7.865194,-3.40149 -7.926079,-7.70612 -0.06003,-4.30529 3.401233,-7.86574 7.706216,-7.92667 z"
       style="display:inline;fill:#38b6ff;fill-opacity:1;stroke:#38b6ff;stroke-width:1.17673;stroke-miterlimit:4;stroke-dasharray:none;stroke-opacity:1"
       inkscape:export-filename="/home/kglaz/Mega/00_my_projects/szjudo/szjudo_logotyp2023_kolor_brak_wypelnienia.png"
       inkscape:export-xdpi="96"
       inkscape:export-ydpi="96" />
    <path
       inkscape:connector-curvature="0"
       id="path32-9-4-2"
       d="m 129.30465,155.1091 c 4.30498,-0.06 7.86521,3.40147 7.92541,7.70679 0.06,4.30462 -3.40126,7.86576 -7.70624,7.92598 -4.30432,0.0607 -7.86522,-3.40149 -7.92541,-7.70612 -0.06,-4.30531 3.40125,-7.86576 7.70624,-7.92665 z"
       style="display:inline;fill:#ffffff;fill-opacity:1;stroke:#ffffff;stroke-width:1.17642;stroke-miterlimit:4;stroke-dasharray:none;stroke-opacity:1"
       inkscape:export-filename="/home/kglaz/Mega/00_my_projects/szjudo/szjudo_logotyp2023_kolor_brak_wypelnienia.png"
       inkscape:export-xdpi="96"
       inkscape:export-ydpi="96" />
    <path
       id="path88430-9-6"
       style="font-weight:bold;font-size:14.4639px;line-height:1.25;font-family:Arial;-inkscape-font-specification:'Arial, Bold';letter-spacing:2.11667px;word-spacing:0px;stroke-width:0.311262"
       d="m 86.695474,212.2978 -2.277263,7.53225 c -0.28525,0.94375 -0.581267,1.53359 -0.890005,1.7701 -0.307117,0.2313 -0.723285,0.2682 -1.24817,0.10958 -0.51962,-0.15698 -0.843341,-0.48406 -0.971233,-0.97986 -0.08623,-0.32698 -0.0424,-0.82814 0.132918,-1.50424 l -2.295747,-0.41605 c -0.371267,1.2476 -0.343587,2.2886 0.08123,3.12294 0.426459,0.82905 1.214131,1.41746 2.364685,1.76519 0.98088,0.29643 1.832939,0.33059 2.555462,0.10339 0.72412,-0.23249 1.302553,-0.65321 1.735657,-1.26297 0.326698,-0.46833 0.636484,-1.1855 0.928142,-2.15049 l 2.230503,-7.38083 z m 37.151536,0.12815 c -0.54782,0.002 -1.12044,0.081 -1.71841,0.23273 -0.96103,0.24375 -1.76967,0.61483 -2.42621,1.11277 -0.49444,0.37115 -0.91461,0.85499 -1.26051,1.45131 -0.34051,0.59494 -0.56971,1.22626 -0.68565,1.89566 -0.15269,0.90733 -0.076,1.96217 0.22892,3.16482 0.47665,1.87912 1.36877,3.2241 2.67735,4.03507 1.3072,0.80559 2.83952,0.98569 4.59516,0.54039 1.73416,-0.43984 2.98319,-1.32718 3.74704,-2.6638 0.76249,-1.34197 0.90196,-2.96615 0.41853,-4.87212 -0.48754,-1.9221 -1.39238,-3.29042 -2.71304,-4.10403 -0.86316,-0.53482 -1.81734,-0.7989 -2.8632,-0.79273 z m -31.821485,1.35651 -0.824737,6.44406 c -0.172699,1.3516 -0.223437,2.38446 -0.15269,3.09709 0.05026,0.48108 0.220816,0.95759 0.512069,1.43038 0.292064,0.46731 0.717545,0.87359 1.276517,1.21865 0.565141,0.34026 1.425061,0.58368 2.578854,0.7312 0.955988,0.1222 1.746543,0.10076 2.37083,-0.0653 0.624979,-0.17127 1.139287,-0.44039 1.543616,-0.80752 0.409808,-0.3664 0.718496,-0.84095 0.926906,-1.42298 0.20843,-0.58201 0.40545,-1.5986 0.59086,-3.04908 l 0.81121,-6.34558 -2.439765,-0.31143 -0.854298,6.68286 c -0.122199,0.95599 -0.245089,1.63554 -0.369266,2.03846 -0.124104,0.40295 -0.379984,0.72558 -0.768115,0.96631 -0.387464,0.2351 -0.927666,0.3088 -1.619961,0.22033 -0.68129,-0.0872 -1.200719,-0.30514 -1.558384,-0.65239 -0.351471,-0.35207 -0.547228,-0.78224 -0.588414,-1.29005 -0.02144,-0.3154 0.03478,-0.99143 0.167458,-2.02986 l 0.835838,-6.54378 z m 31.532215,0.78536 c 0.62755,-0.007 1.20246,0.16722 1.72458,0.52193 0.7648,0.51459 1.31861,1.44867 1.66179,2.80165 0.34723,1.36908 0.30233,2.47497 -0.1353,3.31743 -0.43373,0.83574 -1.12631,1.37397 -2.07663,1.61503 -0.95029,0.24102 -1.82033,0.096 -2.61208,-0.43453 -0.7931,-0.53599 -1.35963,-1.47218 -1.69871,-2.80906 -0.34456,-1.35834 -0.30185,-2.44948 0.12934,-3.2731 0.42973,-0.829 1.13596,-1.36827 2.11848,-1.61748 0.30702,-0.0779 0.60349,-0.11863 0.88874,-0.12197 z m -13.53316,0.26588 c -0.31308,-0.005 -0.65945,0.007 -1.03891,0.0284 l -4.48809,0.26098 0.7078,12.15941 4.6198,-0.26958 c 0.90687,-0.0529 1.62717,-0.17984 2.15911,-0.38284 0.71085,-0.27441 1.2663,-0.63144 1.66793,-1.07092 0.53215,-0.58027 0.92541,-1.32192 1.17802,-2.22436 0.20676,-0.73887 0.28111,-1.60877 0.22272,-2.60963 -0.0662,-1.1391 -0.25573,-2.08727 -0.56623,-2.84598 -0.31079,-0.76421 -0.73532,-1.39998 -1.27528,-1.90674 -0.53994,-0.50675 -1.17256,-0.84448 -1.89814,-1.01308 -0.33739,-0.0774 -0.76699,-0.11958 -1.2888,-0.12553 z m -0.59209,2.09509 c 0.33706,-1.9e-4 0.59199,0.0143 0.76567,0.0431 0.46476,0.0729 0.85439,0.2413 1.16942,0.50593 0.315,0.26462 0.57047,0.64386 0.76563,1.1374 0.19509,0.49354 0.32068,1.21044 0.37546,2.15049 0.0548,0.94003 0.0143,1.68818 -0.11934,2.24525 -0.13435,0.55156 -0.32698,0.95434 -0.57855,1.20758 -0.24607,0.25285 -0.56536,0.4398 -0.9577,0.56254 -0.29962,0.095 -0.7927,0.16318 -1.47837,0.20319 l -1.8329,0.1072 -0.469,-8.05417 1.10294,-0.0641 c 0.50044,-0.0291 0.91976,-0.0441 1.25682,-0.0443 z"
       inkscape:export-filename="/home/kglaz/Mega/00_my_projects/szjudo/szjudo_logotyp2023_kolor_brak_wypelnienia.png"
       inkscape:export-xdpi="96"
       inkscape:export-ydpi="96" />
    <path
       id="path88319-3-4"
       style="font-weight:bold;font-size:14.4639px;line-height:1.25;font-family:Arial;-inkscape-font-specification:'Arial, Bold';letter-spacing:0.529167px;word-spacing:0px;stroke-width:0.311262"
       d="m 35.789195,113.22414 -1.038931,2.22927 11.040466,5.14418 1.038931,-2.22927 z m -2.70072,5.65501 -0.961372,3.16358 3.72979,6.32713 -5.174931,-1.57318 -0.715211,2.35361 11.653487,3.54146 0.715186,-2.35361 -3.521765,-1.06968 -1.367606,-2.50008 6.442849,-1.54116 0.925688,-3.04417 -8.52071,2.46438 z m -1.006916,15.94954 c -0.980738,-0.002 -1.810048,0.31381 -2.48655,0.95029 -0.745915,0.69685 -1.196694,1.80543 -1.354053,3.32606 -0.09623,0.93112 -0.03907,1.74092 0.173652,2.43114 0.213193,0.68472 0.571191,1.2324 1.074638,1.64088 0.498491,0.4024 1.057034,0.63534 1.674104,0.69918 0.958656,0.0993 1.809381,-0.18938 2.553009,-0.86414 0.528553,-0.47989 1.023757,-1.35786 1.484517,-2.63548 0.358927,-0.99305 0.602373,-1.62805 0.731194,-1.9043 0.191993,-0.40331 0.398231,-0.67686 0.619166,-0.82105 0.216052,-0.1503 0.468097,-0.21057 0.754586,-0.18103 0.446277,0.0462 0.815876,0.28682 1.110321,0.72378 0.289538,0.43092 0.394205,1.04136 0.312668,1.8292 -0.07694,0.7438 -0.325698,1.31644 -0.745963,1.71844 -0.419693,0.39656 -1.03643,0.62514 -1.850114,0.68565 l -0.01429,2.40406 c 1.37187,-0.0191 2.455273,-0.40357 3.250949,-1.15096 0.790174,-0.74794 1.264488,-1.88673 1.422989,-3.41836 0.10886,-1.05234 0.05407,-1.94683 -0.164838,-2.68226 -0.224627,-0.73601 -0.6205,-1.3279 -1.186641,-1.77627 -0.566142,-0.44845 -1.195337,-0.70866 -1.889537,-0.78043 -0.765829,-0.0793 -1.425395,0.0167 -1.976911,0.28804 -0.556471,0.26538 -1.013252,0.66907 -1.37006,1.21127 -0.361738,0.5361 -0.744342,1.38463 -1.148481,2.54562 -0.404138,1.16097 -0.751751,1.88227 -1.042623,2.16402 -0.228915,0.22129 -0.486557,0.31774 -0.773046,0.28804 -0.31405,-0.0324 -0.550969,-0.18818 -0.711495,-0.46652 -0.250401,-0.43244 -0.339442,-1.00401 -0.265884,-1.71475 0.07122,-0.68867 0.262811,-1.1899 0.573621,-1.50297 0.305903,-0.31925 0.776048,-0.499 1.409459,-0.53918 l 0.145305,-2.45699 c -0.10481,-0.007 -0.207477,-0.0119 -0.308976,-0.0119 z m 11.040466,11.58579 -1.381137,0.12434 c 0.04312,0.10743 0.08599,0.2232 0.130537,0.34714 0.04955,0.11791 0.0798,0.22701 0.08861,0.32619 0.02144,0.2263 -0.02858,0.39402 -0.146496,0.50469 -0.112909,0.10481 -0.26112,0.16579 -0.443157,0.18223 -0.110288,0.01 -0.227723,0.005 -0.352066,-0.0191 -0.118865,-0.0214 -0.237967,-0.0593 -0.359428,-0.10958 -0.121246,-0.0503 -0.238538,-0.11243 -0.350828,-0.18579 -0.107192,-0.0793 -0.203904,-0.16818 -0.290491,-0.26589 l -0.06765,-0.74475 -11.692886,5.95046 0.233917,2.58995 12.555783,3.63256 -0.233917,-2.59856 -2.846001,-0.75334 -0.436987,-4.84876 2.660106,-1.30727 -0.04812,-0.53794 c 0.294111,0.30162 0.623525,0.53372 0.988455,0.69551 0.364954,0.16174 0.707897,0.2282 1.027854,0.19938 0.215099,-0.0191 0.413453,-0.0738 0.59456,-0.16246 0.186038,-0.0946 0.343896,-0.22224 0.473909,-0.38405 0.129583,-0.16746 0.225818,-0.36829 0.288061,-0.60195 0.06241,-0.23368 0.07956,-0.50473 0.05169,-0.81366 -0.03335,-0.36964 -0.181988,-0.77638 -0.444395,-1.21987 z m -7.565485,5.1023 0.299114,3.31005 -4.649308,-1.23219 z m 5.835974,8.3533 -1.974457,0.56131 1.670412,5.88151 -9.647015,2.73888 0.672096,2.3659 11.620256,-3.29897 z m 1.691326,12.06708 c -0.569286,-0.007 -1.109392,0.11505 -1.618698,0.36436 -0.691509,0.33851 -1.198742,0.76885 -1.522701,1.29126 -0.331367,0.51988 -0.50528,1.10522 -0.520692,1.75412 -0.02382,0.64634 0.101952,1.56843 0.37422,2.7672 0.272268,1.19877 0.359642,1.99502 0.262192,2.38805 -0.07694,0.30907 -0.244756,0.52708 -0.50347,0.65364 -0.283559,0.13839 -0.566975,0.13125 -0.850582,-0.0191 -0.441442,-0.23415 -0.818353,-0.67167 -1.132474,-1.31344 -0.304402,-0.62185 -0.407974,-1.14788 -0.310214,-1.57808 0.09028,-0.43277 0.393776,-0.83419 0.90968,-1.20389 l -1.179257,-2.16157 c -0.987884,0.52672 -1.612481,1.28614 -1.87353,2.27729 -0.263454,0.98617 -0.05907,2.16593 0.613021,3.53901 0.411547,0.84077 0.890601,1.49674 1.436542,1.96953 0.543489,0.46783 1.136572,0.74255 1.779963,0.82228 0.635984,0.0772 1.232615,-0.0214 1.789801,-0.29421 0.865636,-0.42371 1.435351,-1.11775 1.708572,-2.084 0.194137,-0.68703 0.148164,-1.69555 -0.13792,-3.02325 -0.221769,-1.03238 -0.350662,-1.699 -0.38775,-2.00152 -0.05074,-0.44385 -0.02144,-0.78605 0.0898,-1.0254 0.103619,-0.24194 0.285393,-0.42612 0.544084,-0.55271 0.402947,-0.19723 0.844484,-0.18866 1.325729,0.026 0.473838,0.212 0.885194,0.67464 1.233426,1.38604 0.328746,0.67164 0.42167,1.28902 0.278199,1.85259 -0.146019,0.55862 -0.5483,1.07843 -1.206341,1.56086 l 1.260509,2.04709 v 0.001 c 1.153198,-0.74334 1.870314,-1.64285 2.149252,-2.69827 0.273959,-1.05296 0.07146,-2.27045 -0.605636,-3.65349 -0.465119,-0.9502 -0.984239,-1.67968 -1.559623,-2.18741 -0.580363,-0.50531 -1.229662,-0.79854 -1.947373,-0.87891 -0.134586,-0.0143 -0.267457,-0.0238 -0.398827,-0.0245 z m -11.273097,7.51377 1.150935,2.34989 2.735189,-0.0614 -0.649943,-1.32821 z"
       inkscape:export-filename="/home/kglaz/Mega/00_my_projects/szjudo/szjudo_logotyp2023_kolor_brak_wypelnienia.png"
       inkscape:export-xdpi="96"
       inkscape:export-ydpi="96" />
    <path
       id="path88537-4-1"
       style="font-weight:bold;font-size:14.4639px;line-height:1.25;font-family:Arial;-inkscape-font-specification:'Arial, Bold';letter-spacing:0.529167px;word-spacing:0px;stroke-width:0.311262"
       d="m 171.799,108.10459 -1.83413,0.93922 2.585,5.05185 -9.9486,-2.09632 -1.97446,1.01061 4.50777,8.80996 1.82674,-0.93552 -3.15616,-6.16832 10.35357,2.19601 1.70119,-0.8715 z m 5.80151,11.46514 -11.03677,5.91599 0.67948,2.58009 9.42176,0.0167 -8.1871,4.66657 0.66471,2.52221 12.53115,-0.2437 -0.63024,-2.39423 -8.7041,0.36067 7.68363,-4.23326 -0.74596,-2.82752 -8.65732,-0.0214 7.62208,-3.90707 z m 4.16556,19.41466 -12.13602,1.04386 0.21177,2.4496 12.13478,-1.04262 z m -11.55377,5.22667 -0.1465,2.6047 2.70687,1.15834 -0.27203,4.86105 -2.82137,0.9072 -0.0307,0.53918 c -0.24721,-0.34113 -0.54011,-0.61786 -0.87767,-0.83091 -0.33758,-0.21295 -0.66645,-0.32917 -0.98721,-0.34713 -0.21558,-0.0119 -0.41977,0.0119 -0.61181,0.0738 -0.19795,0.0665 -0.37224,0.17127 -0.52438,0.31267 -0.15246,0.14673 -0.27737,0.33058 -0.37299,0.55268 -0.0955,0.22225 -0.15126,0.48796 -0.16865,0.79768 -0.0214,0.3705 0.0669,0.79465 0.2622,1.27158 l 1.38483,0.0774 c -0.0269,-0.11243 -0.0541,-0.23273 -0.08,-0.3619 -0.0312,-0.12387 -0.0441,-0.23535 -0.0393,-0.33483 0.0119,-0.22677 0.085,-0.38641 0.21796,-0.47884 0.12697,-0.0865 0.28156,-0.12529 0.46407,-0.11576 0.11077,0.007 0.22606,0.0288 0.3459,0.0688 0.11434,0.0398 0.2282,0.0939 0.34099,0.16126 0.11267,0.0674 0.21963,0.14507 0.32003,0.23392 0.0946,0.0941 0.17722,0.19581 0.24866,0.30528 l -0.0419,0.74597 12.43389,-4.18896 0.14531,-2.59607 z m 4.56684,4.63208 4.42037,1.89569 -4.60624,1.42298 z m -5.48145,8.44806 -2.35728,9.61009 1.99292,0.48994 1.65071,-6.72964 6.39113,8.43698 1.85629,0.45421 2.1234,-8.65732 -2.0003,-0.49116 -1.3516,5.51099 -6.14985,-8.09599 z m -3.10448,11.67812 -3.75935,8.46652 1.87474,0.83212 2.7623,-6.2188 3.02937,1.34667 -2.4816,5.58855 1.87475,0.83212 2.48283,-5.58852 2.46807,1.09676 -2.66749,6.00587 1.88215,0.83702 3.66578,-8.2548 z m -5.11586,10.87796 -1.41191,2.01386 3.01463,2.11233 0.5219,2.80164 -6.60285,-0.53915 -1.8255,2.60594 8.86413,0.30774 1.2531,6.47853 1.89692,-2.70687 -1.57687,-7.17402 4.42899,3.10446 1.41191,-2.01384 z"
       inkscape:export-filename="/home/kglaz/Mega/00_my_projects/szjudo/szjudo_logotyp2023_kolor_brak_wypelnienia.png"
       inkscape:export-xdpi="96"
       inkscape:export-ydpi="96" />
    <path
       inkscape:connector-curvature="0"
       id="path28-1-0-2-1-8"
       d="m 119.66051,144.02254 c -4.41998,-0.77326 -9.55773,-1.58304 -15.41116,-2.43138 -14.985574,-2.14928 -24.242956,-4.33371 -27.834944,-6.55264 -3.623812,-2.19527 -5.476642,-5.05082 -5.525998,-8.56732 -0.05693,-4.01573 2.442006,-7.50653 7.492451,-10.42971 9.861423,-5.70704 41.043551,-6.8145 63.055591,-7.59517 2.91553,-8.608581 2.87628,-16.369489 -0.11696,-23.28272 -22.98004,1.632418 -46.604751,5.026458 -65.1668,10.483852 -7.65212,2.25006 -13.387833,5.606888 -17.309234,9.911518 -3.921473,4.28231 -5.831781,8.87242 -5.763464,13.72839 0.06312,4.45077 1.737157,8.42929 5.024076,11.95796 3.319386,3.52801 8.312995,6.47082 14.982234,8.78243 5.139748,1.81643 14.132604,3.69239 26.915018,5.64751 2.60229,0.39777 5.01728,0.7739 7.24352,1.12975 z"
       style="display:inline;fill:#38b6ff;fill-opacity:1;stroke:#38b6ff;stroke-width:1.17673;stroke-miterlimit:4;stroke-dasharray:none;stroke-opacity:1"
       inkscape:export-filename="/home/kglaz/Mega/00_my_projects/szjudo/szjudo_logotyp2023_kolor_brak_wypelnienia.png"
       inkscape:export-xdpi="96"
       inkscape:export-ydpi="96" />
    <path
       inkscape:connector-curvature="0"
       id="path24-3-1-0-5-2"
       d="m 119.66051,144.02254 3.54497,0.64049 c 5.14432,0.96301 9.11429,1.86598 11.91011,2.7116 8.12836,2.518 14.16238,5.74627 18.07027,9.68489 3.9079,3.96099 5.8825,8.56257 5.95558,13.78049 0.0729,5.19492 -1.96176,10.1023 -6.13754,14.74517 -4.17512,4.64224 -10.20306,8.29876 -18.10344,10.96417 -24.28899,8.19525 -54.73173,5.77674 -81.544555,6.23066 -0.306308,-9.60235 2.194439,-18.45514 7.501264,-26.55702 18.246166,1.81505 46.881381,6.75359 64.716971,1.67099 5.35888,-1.5269 9.33783,-3.57062 11.92395,-6.12583 2.58607,-2.5768 3.87407,-5.33762 3.83212,-8.32712 -0.0424,-3.0348 -1.34207,-5.64681 -3.93022,-7.88201 -2.55703,-2.23448 -6.75854,-4.06444 -12.57338,-5.51151 -1.88425,-0.47929 -4.88706,-1.08341 -9.02056,-1.81217 -4.13352,-0.72876 -2.15411,-0.45242 -8.56121,-1.43033 -0.007,-0.0651 12.41567,-2.78247 12.41567,-2.78247 z"
       style="display:inline;fill:#ffffff;fill-opacity:1;stroke:#000000;stroke-width:1.17673;stroke-linecap:square;stroke-linejoin:round;stroke-miterlimit:4;stroke-dasharray:none"
       sodipodi:nodetypes="cccccsccccccccscc"
       inkscape:export-filename="/home/kglaz/Mega/00_my_projects/szjudo/szjudo_logotyp2023_kolor_brak_wypelnienia.png"
       inkscape:export-xdpi="96"
       inkscape:export-ydpi="96" />
  </g>
</svg>
